<?xml version="1.0" encoding="UTF-8" standalone="no"?>
<svg
   viewBox="0 0 16 16"
   width="16"
   height="16"
   version="1.1"
   id="svg20"
   sodipodi:docname="device-mobile.svg"
   xmlns:inkscape="http://www.inkscape.org/namespaces/inkscape"
   xmlns:sodipodi="http://sodipodi.sourceforge.net/DTD/sodipodi-0.dtd"
   xmlns="http://www.w3.org/2000/svg"
   xmlns:svg="http://www.w3.org/2000/svg">
  <defs
     id="defs24">
    <filter
       style="color-interpolation-filters:sRGB"
       inkscape:label="Invert"
       id="filter28"
       x="0"
       y="0"
       width="1"
       height="1">
      <feColorMatrix
         values="-1 0 0 0 1 0 -1 0 0 1 0 0 -1 0 1 -0.21 -0.72 -0.07 2 0 "
         result="color2"
         id="feColorMatrix26" />
    </filter>
  </defs>
  <sodipodi:namedview
     id="namedview22"
     pagecolor="#505050"
     bordercolor="#eeeeee"
     borderopacity="1"
     inkscape:showpageshadow="0"
     inkscape:pageopacity="0"
     inkscape:pagecheckerboard="0"
     inkscape:deskcolor="#505050"
     showgrid="false" />
  <path
     d="m 3.75,0 h 8.5 C 13.216,0 14,0.784 14,1.75 v 12.5 A 1.75,1.75 0 0 1 12.25,16 H 3.75 A 1.75,1.75 0 0 1 2,14.25 V 1.75 C 2,0.784 2.784,0 3.75,0 Z M 3.5,1.75 v 12.5 c 0,0.138 0.112,0.25 0.25,0.25 h 8.5 A 0.25,0.25 0 0 0 12.5,14.25 V 1.75 A 0.25,0.25 0 0 0 12.25,1.5 H 3.75 A 0.25,0.25 0 0 0 3.5,1.75 Z M 8,13 a 1,1 0 1 1 0,-2 1,1 0 0 1 0,2 z"
     id="path18"
     style="filter:url(#filter28)" />
</svg>
