<?xml version="1.0" encoding="utf-8"?>
<svg viewBox="0 0 24 24" width="24" height="24" xmlns="http://www.w3.org/2000/svg">
  <path fill-rule="evenodd" d="M 11.999 0 C 5.37 0 0 5.37 0 11.999 C 0 17.309 3.435 21.793 8.204 23.383 C 8.804 23.488 9.029 23.128 9.029 22.813 C 9.029 22.528 9.014 21.583 9.014 20.578 C 6 21.133 5.22 19.844 4.98 19.169 C 4.845 18.824 4.26 17.759 3.75 17.474 C 3.33 17.249 2.73 16.694 3.735 16.679 C 4.68 16.664 5.355 17.549 5.58 17.909 C 6.66 19.724 8.384 19.214 9.074 18.899 C 9.179 18.119 9.494 17.594 9.839 17.294 C 7.169 16.994 4.38 15.959 4.38 11.369 C 4.38 10.064 4.845 8.984 5.61 8.144 C 5.49 7.844 5.07 6.615 5.73 4.965 C 5.73 4.965 6.735 4.65 9.029 6.195 C 9.989 5.925 11.009 5.79 12.029 5.79 C 13.049 5.79 14.069 5.925 15.029 6.195 C 17.324 4.635 18.329 4.965 18.329 4.965 C 18.989 6.615 18.569 7.844 18.449 8.144 C 19.214 8.984 19.679 10.049 19.679 11.369 C 19.679 15.974 16.874 16.994 14.204 17.294 C 14.639 17.669 15.014 18.389 15.014 19.514 C 15.014 21.118 14.999 22.408 14.999 22.813 C 14.999 23.128 15.224 23.503 15.824 23.383 C 20.708 21.734 23.997 17.154 23.998 11.999 C 23.998 5.37 18.629 0 11.999 0 Z" style="fill: rgb(255, 255, 255);"/>
</svg>