<?xml version="1.0" encoding="UTF-8" standalone="no"?>
<svg
   viewBox="0 0 24 24"
   width="24"
   height="24"
   version="1.1"
   id="svg32"
   sodipodi:docname="info.svg"
   inkscape:export-filename="info.svg"
   inkscape:export-xdpi="96"
   inkscape:export-ydpi="96"
   xmlns:inkscape="http://www.inkscape.org/namespaces/inkscape"
   xmlns:sodipodi="http://sodipodi.sourceforge.net/DTD/sodipodi-0.dtd"
   xmlns="http://www.w3.org/2000/svg"
   xmlns:svg="http://www.w3.org/2000/svg">
  <defs
     id="defs36">
    <filter
       style="color-interpolation-filters:sRGB"
       inkscape:label="Invert"
       id="filter400"
       x="0"
       y="0"
       width="1"
       height="1">
      <feColorMatrix
         values="-1 0 0 0 1 0 -1 0 0 1 0 0 -1 0 1 -0.21 -0.72 -0.07 2 0 "
         result="color2"
         id="feColorMatrix398" />
    </filter>
  </defs>
  <sodipodi:namedview
     id="namedview34"
     pagecolor="#505050"
     bordercolor="#eeeeee"
     borderopacity="1"
     inkscape:showpageshadow="0"
     inkscape:pageopacity="0"
     inkscape:pagecheckerboard="0"
     inkscape:deskcolor="#505050"
     showgrid="false" />
  <path
     id="path28"
     style="filter:url(#filter400)"
     d="M 12,1 C 5.9250244,1 1,5.9250244 1,12 1,18.074976 5.9250244,23 12,23 18.074976,23 23,18.074976 23,12 23,5.9250244 18.074976,1 12,1 Z m 0,1.5 A 9.5,9.5 0 0 1 21.5,12 9.5,9.5 0 0 1 12,21.5 9.5,9.5 0 0 1 2.5,12 9.5,9.5 0 0 1 12,2.5 Z m 0.0293,4 A 1,1 0 0 0 11.857422,6.5097656 1,1 0 0 0 11,7.5 a 1,1 0 0 0 2,0 1,1 0 0 0 -0.970703,-1 z m -1.2793,4 A 0.75,0.75 0 0 0 10,11.25 0.75,0.75 0 0 0 10.75,12 h 0.75 v 3.5 h -0.75 a 0.75,0.75 0 0 0 0,1.5 h 3 a 0.75,0.75 0 0 0 0,-1.5 H 13 V 11.25 A 0.75,0.75 0 0 0 12.25,10.5 Z" />
</svg>
