<?xml version="1.0" encoding="UTF-8" standalone="no"?>
<svg
   viewBox="0 0 16 16"
   width="16"
   height="16"
   version="1.1"
   id="svg483"
   xmlns="http://www.w3.org/2000/svg"
   xmlns:svg="http://www.w3.org/2000/svg">
  <defs
     id="defs487">
    <filter
       style="color-interpolation-filters:sRGB"
       id="filter491"
       x="0"
       y="0"
       width="1"
       height="1">
      <feColorMatrix
         values="-1 0 0 0 1 0 -1 0 0 1 0 0 -1 0 1 -0.21 -0.72 -0.07 2 0 "
         result="color2"
         id="feColorMatrix489" />
    </filter>
  </defs>
  <path
     d="m 7.693,1.066 a 0.747,0.747 0 0 1 0.614,0 l 7.25,3.25 a 0.75,0.75 0 0 1 0,1.368 L 13,6.831 v 2.794 c 0,1.024 -0.81,1.749 -1.66,2.173 C 10.447,12.245 9.265,12.5 8,12.5 7.722,12.5 7.45,12.488 7.184,12.464 A 0.75,0.75 0 0 1 7.317,10.97 C 7.537,10.99 7.767,11 8,11 9.082,11 10.025,10.779 10.67,10.457 11.36,10.112 11.5,9.775 11.5,9.625 V 7.503 L 8.307,8.934 a 0.747,0.747 0 0 1 -0.614,0 L 4,7.28 V 8.943 C 4.296,9.048 4.575,9.218 4.812,9.455 5.25,9.893 5.5,10.514 5.5,11.251 v 3 a 0.75,0.75 0 0 1 -0.75,0.75 h -3 A 0.75,0.75 0 0 1 1,14.251 v -3 C 1,10.514 1.25,9.893 1.688,9.455 1.925,9.218 2.204,9.048 2.5,8.943 V 6.606 L 0.443,5.684 a 0.75,0.75 0 0 1 0,-1.368 z M 2.583,5 8,7.428 13.416,5 8,2.572 Z M 2.5,11.25 V 13.5 H 4 V 11.25 C 4,10.862 3.875,10.639 3.75,10.515 a 0.697,0.697 0 0 0 -0.5,-0.203 0.707,0.707 0 0 0 -0.5,0.203 C 2.625,10.639 2.5,10.862 2.5,11.25 Z"
     id="path481"
     style="filter:url(#filter491)" />
</svg>
