<?xml version="1.0" encoding="UTF-8" standalone="no"?>
<svg
   viewBox="0 0 16 16"
   width="16"
   height="16"
   version="1.1"
   id="svg12"
   sodipodi:docname="organization.svg"
   xmlns:inkscape="http://www.inkscape.org/namespaces/inkscape"
   xmlns:sodipodi="http://sodipodi.sourceforge.net/DTD/sodipodi-0.dtd"
   xmlns="http://www.w3.org/2000/svg"
   xmlns:svg="http://www.w3.org/2000/svg">
  <defs
     id="defs16">
    <filter
       style="color-interpolation-filters:sRGB"
       inkscape:label="Invert"
       id="filter124"
       x="0"
       y="0"
       width="1"
       height="1">
      <feColorMatrix
         values="-1 0 0 0 1 0 -1 0 0 1 0 0 -1 0 1 -0.21 -0.72 -0.07 2 0 "
         result="color2"
         id="feColorMatrix122" />
    </filter>
  </defs>
  <sodipodi:namedview
     id="namedview14"
     pagecolor="#505050"
     bordercolor="#eeeeee"
     borderopacity="1"
     inkscape:showpageshadow="0"
     inkscape:pageopacity="0"
     inkscape:pagecheckerboard="0"
     inkscape:deskcolor="#505050"
     showgrid="false" />
  <path
     d="M 1.75,16 A 1.75,1.75 0 0 1 0,14.25 V 1.75 C 0,0.784 0.784,0 1.75,0 h 8.5 C 11.216,0 12,0.784 12,1.75 v 12.5 c 0,0.085 -0.006,0.168 -0.018,0.25 H 14.25 A 0.25,0.25 0 0 0 14.5,14.25 V 8.285 A 0.25,0.25 0 0 0 14.389,8.077 L 13.334,7.374 a 0.74995467,0.74995467 0 1 1 0.832,-1.248 l 1.055,0.703 C 15.708,7.154 16,7.7 16,8.285 V 14.25 A 1.75,1.75 0 0 1 14.25,16 h -3.5 A 0.766,0.766 0 0 1 10.553,15.974 C 10.454,15.991 10.353,16 10.25,16 h -3 A 0.75,0.75 0 0 1 6.5,15.25 V 14 h -1 v 1.25 A 0.75,0.75 0 0 1 4.75,16 Z M 1.5,14.25 c 0,0.138 0.112,0.25 0.25,0.25 H 4 V 13.25 A 0.75,0.75 0 0 1 4.75,12.5 h 2.5 A 0.75,0.75 0 0 1 8,13.25 v 1.25 h 2.25 A 0.25,0.25 0 0 0 10.5,14.25 V 1.75 A 0.25,0.25 0 0 0 10.25,1.5 H 1.75 A 0.25,0.25 0 0 0 1.5,1.75 Z M 3.75,6 h 0.5 a 0.75,0.75 0 0 1 0,1.5 H 3.75 A 0.75,0.75 0 0 1 3.75,6 Z M 3,3.75 A 0.75,0.75 0 0 1 3.75,3 h 0.5 a 0.75,0.75 0 0 1 0,1.5 H 3.75 A 0.75,0.75 0 0 1 3,3.75 Z m 4,3 A 0.75,0.75 0 0 1 7.75,6 h 0.5 a 0.75,0.75 0 0 1 0,1.5 H 7.75 A 0.75,0.75 0 0 1 7,6.75 Z M 7.75,3 h 0.5 a 0.75,0.75 0 0 1 0,1.5 H 7.75 A 0.75,0.75 0 0 1 7.75,3 Z M 3,9.75 A 0.75,0.75 0 0 1 3.75,9 h 0.5 a 0.75,0.75 0 0 1 0,1.5 H 3.75 A 0.75,0.75 0 0 1 3,9.75 Z M 7.75,9 h 0.5 a 0.75,0.75 0 0 1 0,1.5 h -0.5 a 0.75,0.75 0 0 1 0,-1.5 z"
     id="path10"
     style="filter:url(#filter124)" />
</svg>
