<?xml version="1.0" encoding="UTF-8" standalone="no"?>
<svg
   viewBox="0 0 16 16"
   width="16"
   height="16"
   version="1.1"
   id="svg20"
   sodipodi:docname="star.svg"
   inkscape:export-filename="star.svg"
   inkscape:export-xdpi="96"
   inkscape:export-ydpi="96"
   xmlns:inkscape="http://www.inkscape.org/namespaces/inkscape"
   xmlns:sodipodi="http://sodipodi.sourceforge.net/DTD/sodipodi-0.dtd"
   xmlns="http://www.w3.org/2000/svg"
   xmlns:svg="http://www.w3.org/2000/svg">
  <defs
     id="defs24">
    <filter
       style="color-interpolation-filters:sRGB"
       inkscape:label="Invert"
       id="filter132"
       x="0"
       y="0"
       width="1"
       height="1">
      <feColorMatrix
         values="-1 0 0 0 1 0 -1 0 0 1 0 0 -1 0 1 -0.21 -0.72 -0.07 2 0 "
         result="color2"
         id="feColorMatrix130" />
    </filter>
  </defs>
  <sodipodi:namedview
     id="namedview22"
     pagecolor="#505050"
     bordercolor="#eeeeee"
     borderopacity="1"
     inkscape:showpageshadow="0"
     inkscape:pageopacity="0"
     inkscape:pagecheckerboard="0"
     inkscape:deskcolor="#505050"
     showgrid="false" />
  <path
     d="m 8,0.25 a 0.75,0.75 0 0 1 0.673,0.418 l 1.882,3.815 4.21,0.612 a 0.75,0.75 0 0 1 0.416,1.279 l -3.046,2.97 0.719,4.192 a 0.751,0.751 0 0 1 -1.088,0.791 L 8,12.347 4.234,14.327 A 0.75,0.75 0 0 1 3.146,13.537 L 3.866,9.343 0.818,6.374 A 0.75,0.75 0 0 1 1.234,5.094 L 5.444,4.483 7.327,0.668 A 0.75,0.75 0 0 1 8,0.25 Z"
     id="path18"
     style="filter:url(#filter132)" />
</svg>
