<?xml version="1.0" encoding="UTF-8" standalone="no"?>
<svg
   viewBox="0 0 16 16"
   width="16"
   height="16"
   version="1.1"
   id="svg166"
   sodipodi:docname="terminal.svg"
   xmlns:inkscape="http://www.inkscape.org/namespaces/inkscape"
   xmlns:sodipodi="http://sodipodi.sourceforge.net/DTD/sodipodi-0.dtd"
   xmlns="http://www.w3.org/2000/svg"
   xmlns:svg="http://www.w3.org/2000/svg">
  <defs
     id="defs170">
    <filter
       style="color-interpolation-filters:sRGB"
       inkscape:label="Invert"
       id="filter178"
       x="0"
       y="0"
       width="1"
       height="1">
      <feColorMatrix
         values="-1 0 0 0 1 0 -1 0 0 1 0 0 -1 0 1 -0.21 -0.72 -0.07 2 0 "
         result="color2"
         id="feColorMatrix176" />
    </filter>
  </defs>
  <sodipodi:namedview
     id="namedview168"
     pagecolor="#505050"
     bordercolor="#eeeeee"
     borderopacity="1"
     inkscape:showpageshadow="0"
     inkscape:pageopacity="0"
     inkscape:pagecheckerboard="0"
     inkscape:deskcolor="#505050"
     showgrid="false"
     inkscape:zoom="18.318485"
     inkscape:cx="23.064134"
     inkscape:cy="14.73921"
     inkscape:window-width="1920"
     inkscape:window-height="1009"
     inkscape:window-x="1912"
     inkscape:window-y="-8"
     inkscape:window-maximized="1"
     inkscape:current-layer="svg166" />
  <path
     d="M 0,2.75 C 0,1.784 0.784,1 1.75,1 h 12.5 C 15.216,1 16,1.784 16,2.75 v 10.5 A 1.75,1.75 0 0 1 14.25,15 H 1.75 A 1.75,1.75 0 0 1 0,13.25 Z M 1.75,2.5 A 0.25,0.25 0 0 0 1.5,2.75 v 10.5 c 0,0.138 0.112,0.25 0.25,0.25 h 12.5 A 0.25,0.25 0 0 0 14.5,13.25 V 2.75 A 0.25,0.25 0 0 0 14.25,2.5 Z M 7.25,8 A 0.749,0.749 0 0 1 7.03,8.53 L 4.78,10.78 A 0.749,0.749 0 0 1 3.505,10.454 0.749,0.749 0 0 1 3.72,9.72 L 5.44,8 3.72,6.28 A 0.749,0.749 0 0 1 4.046,5.005 0.749,0.749 0 0 1 4.78,5.22 L 7.03,7.47 C 7.171,7.61 7.25,7.801 7.25,8 Z m 1.5,1.5 h 3 a 0.75,0.75 0 0 1 0,1.5 h -3 a 0.75,0.75 0 0 1 0,-1.5 z"
     id="path164"
     style="filter:url(#filter178)" />
</svg>
